<svg width="95" height="99" viewBox="0 0 95 99" fill="none" xmlns="http://www.w3.org/2000/svg">
<g clip-path="url(#clip0_154_141)">
<path d="M36.176 78.904C36.112 79.16 35.76 79.288 35.12 79.288C34.48 79.288 34.128 79.16 34.064 78.904L9.968 26.968C8.752 24.28 7.6 22.488 6.512 21.592C5.488 20.632 4.016 20.152 2.096 20.152C1.904 20.152 1.808 19.96 1.808 19.576C1.808 19.192 1.904 19 2.096 19L5.072 19.096C6.736 19.224 8.304 19.288 9.776 19.288C12.656 19.288 15.504 19.224 18.32 19.096C19.216 19.032 20.432 19 21.968 19C22.16 19 22.256 19.192 22.256 19.576C22.256 19.96 22.16 20.152 21.968 20.152C20.112 20.152 18.768 20.344 17.936 20.728C17.104 21.112 16.688 21.848 16.688 22.936C16.688 23.832 17.136 25.272 18.032 27.256L38.384 70.744L34.736 76.024L46.832 45.304L48.368 47.512L36.176 78.904ZM91.184 19C91.376 19 91.472 19.192 91.472 19.576C91.472 19.96 91.376 20.152 91.184 20.152C86.64 20.152 83.184 23.064 80.816 28.888L61.232 78.904C61.168 79.16 60.816 79.288 60.176 79.288C59.536 79.288 59.184 79.16 59.12 78.904L35.024 26.968C33.936 24.6 32.816 22.872 31.664 21.784C30.576 20.696 29.232 20.152 27.632 20.152C27.44 20.152 27.344 19.96 27.344 19.576C27.344 19.192 27.44 19 27.632 19L30.608 19.096C32.144 19.224 33.552 19.288 34.832 19.288C37.264 19.288 39.504 19.224 41.552 19.096C42.192 19.032 43.056 19 44.144 19C44.336 19 44.432 19.192 44.432 19.576C44.432 19.96 44.336 20.152 44.144 20.152C43.056 20.152 42.256 20.28 41.744 20.536C41.296 20.728 41.072 21.112 41.072 21.688C41.072 22.584 41.744 24.44 43.088 27.256L63.44 70.744L59.792 76.024L78.32 28.888C78.896 27.352 79.184 26.04 79.184 24.952C79.184 23.416 78.608 22.232 77.456 21.4C76.368 20.568 74.736 20.152 72.56 20.152C72.368 20.152 72.272 19.96 72.272 19.576C72.272 19.192 72.368 19 72.56 19L76.688 19.096C78.864 19.224 80.848 19.288 82.64 19.288C83.984 19.288 85.488 19.224 87.152 19.096L91.184 19ZM53.936 28.408C54.832 26.104 55.28 24.344 55.28 23.128C55.28 21.144 54.096 20.152 51.728 20.152C51.6 20.152 51.536 19.96 51.536 19.576C51.536 19.192 51.6 19 51.728 19L53.648 19.096C54.928 19.224 56.4 19.288 58.064 19.288C59.216 19.288 60.624 19.224 62.288 19.096L66.128 19C66.256 19 66.32 19.192 66.32 19.576C66.32 19.96 66.256 20.152 66.128 20.152C63.952 20.152 62.064 20.824 60.464 22.168C58.864 23.512 57.456 25.752 56.24 28.888L48.848 47.512L47.312 45.304L53.936 28.408Z" fill="#CE0F12"/>
</g>
<defs>
<clipPath id="clip0_154_141">
<rect width="95" height="99" fill="white"/>
</clipPath>
</defs>
</svg>
